<?xml version="1.0" encoding="UTF-8"?>
<svg width="200" height="200" viewBox="0 0 200 200" xmlns="http://www.w3.org/2000/svg">
  <!-- Giebeldach mit Überstand -->
  <polygon points="30,80 100,30 170,80 160,80 100,40 40,80" fill="none" stroke="#333" stroke-width="3.5"/>
  <!-- Mittelbogen -->
  <path d="M80,80 A20,20 0 0,1 120,80" fill="none" stroke="#333" stroke-width="3"/>
  <!-- Tempelfront (Balken) -->
  <rect x="40" y="80" width="120" height="18" fill="none" stroke="#333" stroke-width="2.5"/>
  <!-- Säulen (mit Kapitell und Basis) -->
  <g stroke="#333" stroke-width="2">
    <rect x="48" y="98" width="6" height="54" fill="none"/>
    <rect x="68" y="98" width="6" height="54" fill="none"/>
    <rect x="126" y="98" width="6" height="54" fill="none"/>
    <rect x="146" y="98" width="6" height="54" fill="none"/>
    <!-- Kapitelle -->
    <rect x="46" y="94" width="10" height="6" fill="none"/>
    <rect x="66" y="94" width="10" height="6" fill="none"/>
    <rect x="124" y="94" width="10" height="6" fill="none"/>
    <rect x="144" y="94" width="10" height="6" fill="none"/>
    <!-- Basen -->
    <rect x="46" y="152" width="10" height="6" fill="none"/>
    <rect x="66" y="152" width="10" height="6" fill="none"/>
    <rect x="124" y="152" width="10" height="6" fill="none"/>
    <rect x="144" y="152" width="10" height="6" fill="none"/>
  </g>
  <!-- Treppe (mehrere Stufen) -->
  <rect x="38" y="158" width="124" height="6" fill="none" stroke="#333" stroke-width="1.5"/>
  <rect x="42" y="164" width="116" height="6" fill="none" stroke="#333" stroke-width="1.2"/>
  <rect x="46" y="170" width="108" height="6" fill="none" stroke="#333" stroke-width="1"/>
  <!-- Türöffnung -->
  <rect x="90" y="110" width="20" height="42" fill="none" stroke="#333" stroke-width="1.5"/>
</svg> 